<svg xmlns="http://www.w3.org/2000/svg" viewBox="0 0 256 320" x="0px" y="0px"><title>Animal</title><path d="M97.32,228.69c-9.57,2.55-16.61,8.6-20.15,12.23,55.45,3.71,73.38-3.83,78-6.6a11.6,11.6,0,0,1-2-5.72C144.72,227.9,110,225.31,97.32,228.69Z"/><path d="M191.26,166.83a41.94,41.94,0,0,1,10.86,4.95c3-6.94,14.17-26.65,45.36-28.79-3.68-12.47-9.68-22.42-18-29.73a61.05,61.05,0,0,0-22-12.17C183.56,123.81,189.84,160.12,191.26,166.83Z"/><path d="M171.12,161.08a11,11,0,0,1-1.83,1.92A118.75,118.75,0,0,1,187,165.65c-1.86-10.4-5.6-43.47,16.14-65.83-15-3.9-31.65-3.87-47.4-2.65-.39,9.88,4.93,21.59,9.67,32C171.39,142.34,176.58,153.73,171.12,161.08Z"/><path d="M67.9,112.83A168.35,168.35,0,0,1,83,130.39c8.76,11.34,15.68,20.29,34.88,27.52a94.56,94.56,0,0,0,15.9,4.36c19,2.55,30.52,1.35,34.17-3.57,4.05-5.46-.91-16.36-6.17-27.89-4.85-10.64-10.29-22.59-10.05-33.3-7,.64-13.76,1.46-20.05,2.23-2.86.35-5.62.68-8.24,1-16.7,1.91-35.6,2.1-49.39,2.24-6.42.07-13,.14-16.77.41a129.54,129.54,0,0,1,10.64,9.44Zm37.84-7.26c2.36,0,4.26,3.1,4.26,6.9s-1.9,6.91-4.26,6.91-4.25-3.1-4.25-6.91S103.39,105.57,105.74,105.57Z"/><path d="M211.47,192.39a23.45,23.45,0,0,1-6.15,13.85l-.22.23c5,1.55,13.06,6.06,15.29,19a58.34,58.34,0,0,0,15.11-9.39,45.31,45.31,0,0,0,12.35-17.38C236.9,182.31,216.29,190.23,211.47,192.39Z"/><path d="M248.54,146.93c-32.06,1.84-41.44,22.6-43.17,27.4a18.66,18.66,0,0,1,6,11.79c.07.65.12,1.29.16,1.93,7.2-2.78,26.19-8.18,37.89,6.11a62.25,62.25,0,0,0,2.37-17.79A125.5,125.5,0,0,0,248.54,146.93Z"/><path d="M94.94,214c1.3,2.63,6.5,7.25,26.81,8.64a1.92,1.92,0,0,1,1.07.4c12.94.19,26,1.19,30.71,1.59a16.14,16.14,0,0,1,2-4.46c-10-2-41.26-8.08-60.73-9.89A4.74,4.74,0,0,0,94.94,214Z"/><path d="M201.52,209.71a48,48,0,0,1-15.86,7.58A38.19,38.19,0,0,1,189.22,233,107.69,107.69,0,0,0,216.6,227C214.46,212.32,204.27,210.05,201.52,209.71Z"/><path d="M160,220.84c-1.44,1.74-5,6.95-1,12a155.45,155.45,0,0,0,26.24.48c-.19-7.8-2.38-12.84-3.53-14.95A102.09,102.09,0,0,1,160,220.84Z"/><path d="M6.21,101.49c7.82,13.65,33.47,24.62,67.37,19.2a1.47,1.47,0,0,1,1.11.26,1.52,1.52,0,0,1,.6,1,1.49,1.49,0,0,1-.26,1.12,1.52,1.52,0,0,1-1,.6,116.12,116.12,0,0,1-18.21,1.5C26.66,125.15,9.47,113.21,3.6,103-.6,95.65,0,87.84,5.13,81.55l0,0c.5,1,1,1.91,1.6,2.85C3,89.51,2.82,95.58,6.21,101.49ZM82.58,72.32c27.1,5.76,57.81,12.28,88.37,2.75,18.66-5.82,37.29-17.82,38.07-18.33a1.51,1.51,0,0,1,1.13-.21,1.56,1.56,0,0,1,.95.65,1.51,1.51,0,0,1-.44,2.08c-.79.51-19.59,12.68-38.81,18.67-31.31,9.77-62.43,3.16-89.9-2.67C52.57,69,27.16,63.63,10.24,80.4c-.52-.92-1-1.86-1.45-2.79C26.73,60.47,52.61,66,82.58,72.32ZM10.38,82.63c11,18,32,29.21,56.1,30.06a1.5,1.5,0,0,1,0,3v.5l-.05-.5C41.22,114.8,19.33,103,7.82,84.2.33,72-1.4,58.81,3.18,49,9.06,36.49,18.22,30.65,32,30.65c11.44,0,24.78,3.77,40.23,8.13,19.66,5.55,41.94,11.84,66.29,11.84A122.59,122.59,0,0,0,173,45.89c26.91-7.76,36.59-31.86,36.68-32.1a1.5,1.5,0,0,1,2.8,1.09c-.41,1-10.28,25.71-38.65,33.89a125.56,125.56,0,0,1-35.29,4.86c-24.68,0-47.2-6.35-67.08-12-15.2-4.3-28.34-8-39.16-8-12.67,0-21,5.29-26.36,16.64C1.81,59,3.52,71.42,10.38,82.63Z"/></svg>